<svg width="231" height="37" viewBox="0 0 231 37" fill="none" xmlns="http://www.w3.org/2000/svg">
<path d="M0.420349 33V7.54546H17.5723V11.9826H5.8021V18.0479H16.6899V22.4851H5.8021V28.5629H17.6221V33H0.420349Z" fill="black"/>
<path d="M26.8972 7.54546L32.0303 16.2209H32.2292L43.639 0L43.465 7.54546L35.6969 20.2727L43.639 33H37.4494L32.2292 24.3122H32.0303L26.8102 33L19 36.5L28.6124 20.2727L20.7945 7.54546H26.8972Z" fill="black"/>
<path d="M46.8705 33V7.54546H56.9132C58.8438 7.54546 60.4886 7.91419 61.8475 8.65164C63.2064 9.38081 64.2421 10.3958 64.9547 11.6967C65.6756 12.9894 66.036 14.4808 66.036 16.1712C66.036 17.8615 65.6714 19.353 64.9423 20.6456C64.2131 21.9382 63.1566 22.945 61.7729 23.6658C60.3974 24.3867 58.7319 24.7472 56.7764 24.7472H50.3755V20.4343H55.9064C56.9422 20.4343 57.7956 20.2562 58.4668 19.8999C59.1462 19.5353 59.6517 19.034 59.9831 18.396C60.3228 17.7497 60.4927 17.0081 60.4927 16.1712C60.4927 15.326 60.3228 14.5885 59.9831 13.9588C59.6517 13.3208 59.1462 12.8278 58.4668 12.4798C57.7873 12.1235 56.9256 11.9453 55.8816 11.9453H52.2523V33H46.8705Z" fill="black"/>
<path d="M69.5317 33V7.54546H74.9134V28.5629H85.8261V33H69.5317Z" fill="black"/>
<path d="M94.4269 33H88.6599L97.4472 7.54546H104.383L113.157 33H107.39L101.014 13.3622H100.815L94.4269 33ZM94.0665 22.9947H107.689V27.1957H94.0665V22.9947Z" fill="black"/>
<path d="M121.603 7.54546V33H116.221V7.54546H121.603Z" fill="black"/>
<path d="M147.322 7.54546V33H142.673L131.599 16.9791H131.412V33H126.031V7.54546H130.754L141.741 23.554H141.965V7.54546H147.322Z" fill="black"/>
<path d="M150.799 11.9826V7.54546H171.704V11.9826H163.911V33H158.592V11.9826H150.799Z" fill="black"/>
<path d="M175.147 33V7.54546H180.529V18.0479H191.454V7.54546H196.823V33H191.454V22.4851H180.529V33H175.147Z" fill="black"/>
<path d="M206.642 7.54546V33H201.26V7.54546H206.642Z" fill="black"/>
<path d="M224.878 14.8661C224.779 13.8635 224.352 13.0846 223.598 12.5295C222.844 11.9743 221.821 11.6967 220.528 11.6967C219.65 11.6967 218.908 11.821 218.303 12.0696C217.699 12.3099 217.235 12.6455 216.911 13.0764C216.597 13.5072 216.439 13.9961 216.439 14.543C216.423 14.9987 216.518 15.3964 216.725 15.7362C216.94 16.0759 217.235 16.37 217.607 16.6186C217.98 16.8589 218.411 17.0702 218.9 17.2525C219.389 17.4265 219.911 17.5756 220.466 17.6999L222.753 18.2468C223.863 18.4954 224.883 18.8268 225.811 19.2411C226.739 19.6554 227.542 20.165 228.222 20.7699C228.901 21.3748 229.427 22.0874 229.8 22.9077C230.181 23.728 230.376 24.6684 230.384 25.7291C230.376 27.2868 229.978 28.6374 229.191 29.7809C228.412 30.9161 227.285 31.7985 225.811 32.4283C224.344 33.0497 222.575 33.3604 220.503 33.3604C218.448 33.3604 216.659 33.0456 215.134 32.4158C213.618 31.7861 212.433 30.8539 211.579 29.6193C210.734 28.3764 210.291 26.8394 210.249 25.0082H215.457C215.515 25.8616 215.76 26.5742 216.191 27.146C216.63 27.7094 217.214 28.1361 217.943 28.4261C218.68 28.7079 219.513 28.8487 220.441 28.8487C221.353 28.8487 222.144 28.7162 222.815 28.451C223.495 28.1858 224.021 27.8171 224.394 27.3448C224.767 26.8725 224.953 26.3298 224.953 25.7166C224.953 25.1449 224.783 24.6643 224.443 24.2749C224.112 23.8854 223.623 23.554 222.977 23.2805C222.339 23.0071 221.556 22.7585 220.628 22.5348L217.856 21.8388C215.71 21.3168 214.015 20.5006 212.773 19.3903C211.53 18.28 210.912 16.7843 210.921 14.9034C210.912 13.3622 211.322 12.0157 212.151 10.864C212.988 9.71225 214.136 8.81322 215.594 8.16691C217.052 7.5206 218.709 7.19745 220.566 7.19745C222.455 7.19745 224.104 7.5206 225.512 8.16691C226.929 8.81322 228.031 9.71225 228.818 10.864C229.606 12.0157 230.012 13.3498 230.036 14.8661H224.878Z" fill="black"/>
</svg>
